<?xml version="1.0" encoding="UTF-8" standalone="no" ?>
<!DOCTYPE svg PUBLIC "-//W3C//DTD SVG 1.1//EN" "http://www.w3.org/Graphics/SVG/1.1/DTD/svg11.dtd">
<svg xmlns="http://www.w3.org/2000/svg" xmlns:xlink="http://www.w3.org/1999/xlink" version="1.1" width="400" height="400" viewBox="0 0 400 400" xml:space="preserve">
<desc>Created with Fabric.js 3.6.2</desc>
<defs>
</defs>
<g transform="matrix(3.13 0 0 3.13 200 200)" id="Bitcoin_BTC"  >
<path style="stroke: none; stroke-width: 1; stroke-dasharray: none; stroke-linecap: butt; stroke-dashoffset: 0; stroke-linejoin: miter; stroke-miterlimit: 4; fill: rgb(55,71,79); fill-rule: nonzero; opacity: 1;"  transform=" translate(-32, -32)" d="M 32 59 C 17.112 59 5 46.888 5 32 S 17.112 5 32 5 s 27 12.112 27 27 S 46.888 59 32 59 z M 32 6 C 17.663 6 6 17.663 6 32 s 11.663 26 26 26 s 26 -11.663 26 -26 S 46.337 6 32 6 z" stroke-linecap="round" />
</g>
<g transform="matrix(3.13 0 0 3.13 200 200)" id="Bitcoin_BTC"  >
<path style="stroke: none; stroke-width: 1; stroke-dasharray: none; stroke-linecap: butt; stroke-dashoffset: 0; stroke-linejoin: miter; stroke-miterlimit: 4; fill: rgb(55,71,79); fill-rule: nonzero; opacity: 1;"  transform=" translate(-32, -32)" d="M 32 55 C 19.317 55 9 44.683 9 32 S 19.317 9 32 9 s 23 10.317 23 23 S 44.683 55 32 55 z M 32 10 c -12.131 0 -22 9.869 -22 22 s 9.869 22 22 22 s 22 -9.869 22 -22 S 44.131 10 32 10 z" stroke-linecap="round" />
</g>
<g transform="matrix(3.13 0 0 3.13 197.94 198.63)" id="Bitcoin_BTC"  >
<path style="stroke: none; stroke-width: 1; stroke-dasharray: none; stroke-linecap: butt; stroke-dashoffset: 0; stroke-linejoin: miter; stroke-miterlimit: 4; fill: rgb(55,71,79); fill-rule: nonzero; opacity: 1;"  transform=" translate(-31.34, -31.56)" d="M 31.913 49.225 l -3.927 -0.979 l 1.209 -4.836 c -0.456 -0.115 -0.918 -0.234 -1.388 -0.359 L 26.598 47.9 l -3.922 -0.979 l 1.223 -4.914 c -1.492 -0.377 -5.47 -1.38 -5.47 -1.38 l -0.571 -0.144 l 1.873 -4.319 l 0.416 0.11 c 0.645 0.172 1.349 0.354 1.752 0.453 l 0.005 -0.011 l 0.381 0.093 c 0.083 0.02 0.16 0.03 0.229 0.03 c 0.091 0 0.367 0 0.542 -0.437 l 3.295 -13.234 c 0.024 -0.55 -0.293 -0.933 -1.013 -1.111 l -0.331 -0.102 c -0.388 -0.1 -1.13 -0.276 -1.806 -0.431 l -0.497 -0.113 l 1.03 -4.139 l 0.485 0.121 c 0 0 3.997 1 5.474 1.361 l 1.213 -4.859 l 3.923 0.98 l -1.184 4.748 c 0.466 0.106 0.933 0.215 1.394 0.326 l 1.179 -4.729 l 3.928 0.979 L 38.926 21.1 c 2.931 1.066 6.454 2.978 5.825 7.191 c -0.323 2.18 -1.354 3.655 -3.069 4.4 c 2.447 1.669 3.096 4.034 1.986 7.2 c -1.132 3.24 -3.367 4.749 -7.033 4.749 c -1.009 0 -2.155 -0.114 -3.492 -0.348 L 31.913 49.225 z M 29.199 47.517 l 1.986 0.495 l 1.216 -4.874 l 0.464 0.088 c 1.477 0.279 2.71 0.415 3.771 0.415 c 3.225 0 5.103 -1.258 6.089 -4.079 c 1.081 -3.084 0.317 -5.106 -2.474 -6.56 l -1.202 -0.625 l 1.32 -0.306 c 1.959 -0.452 3.069 -1.737 3.393 -3.928 c 0.425 -2.845 -1.299 -4.772 -5.593 -6.251 l -0.434 -0.149 l 1.201 -4.814 l -1.986 -0.494 l -1.179 4.728 l -0.485 -0.121 c -0.773 -0.192 -1.568 -0.375 -2.357 -0.555 l -0.499 -0.112 l 1.19 -4.769 l -1.983 -0.496 l -1.209 4.845 l -0.478 -0.109 c -0.524 -0.12 -4.156 -1.026 -5.484 -1.358 l -0.542 2.178 c 0.909 0.209 1.397 0.326 1.666 0.425 c 1.178 0.296 1.815 1.108 1.749 2.23 l -3.331 13.392 c -0.351 0.89 -1.054 1.27 -1.905 1.082 c -0.117 -0.015 -0.454 -0.088 -1.796 -0.441 l -1.062 2.45 c 1.382 0.348 4.835 1.218 5.384 1.358 l 0.482 0.123 l -1.222 4.909 l 1.981 0.495 l 1.215 -4.87 l 0.493 0.135 c 0.803 0.219 1.583 0.418 2.346 0.609 l 0.485 0.122 L 29.199 47.517 z M 33.866 40.358 c -1.802 0 -3.818 -0.533 -5.022 -0.853 l -1.045 -0.267 l 1.865 -7.477 l 0.485 0.121 c 0.198 0.05 0.44 0.104 0.715 0.166 c 2.063 0.462 5.515 1.236 6.772 3.273 c 0.459 0.744 0.578 1.58 0.353 2.485 C 37.698 38.972 36.748 40.358 33.866 40.358 z M 29.009 38.516 l 0.09 0.023 c 1.157 0.307 3.094 0.819 4.767 0.819 c 1.82 0 2.852 -0.586 3.152 -1.792 c 0.16 -0.643 0.084 -1.205 -0.233 -1.718 c -1.036 -1.679 -4.356 -2.424 -6.14 -2.823 c -0.087 -0.02 -0.171 -0.039 -0.251 -0.057 L 29.009 38.516 z M 35.19 30.691 c -1.476 0 -3.03 -0.414 -4.058 -0.688 l -0.969 -0.246 l 1.714 -6.874 l 0.485 0.121 c 0.167 0.042 0.37 0.087 0.602 0.138 c 1.69 0.375 4.52 1.002 5.613 2.768 c 0.434 0.7 0.543 1.5 0.325 2.376 C 38.627 29.383 37.761 30.691 35.19 30.691 z M 31.374 29.033 l 0.015 0.005 c 0.978 0.26 2.456 0.653 3.801 0.653 c 2.088 0 2.564 -0.94 2.741 -1.647 c 0.152 -0.613 0.085 -1.139 -0.205 -1.607 c -0.871 -1.406 -3.543 -1.999 -4.979 -2.317 c -0.047 -0.011 -0.094 -0.021 -0.14 -0.031 L 31.374 29.033 z" stroke-linecap="round" />
</g>
</svg>