<?xml version="1.0" encoding="UTF-8" standalone="no" ?>
<!DOCTYPE svg PUBLIC "-//W3C//DTD SVG 1.1//EN" "http://www.w3.org/Graphics/SVG/1.1/DTD/svg11.dtd">
<svg xmlns="http://www.w3.org/2000/svg" xmlns:xlink="http://www.w3.org/1999/xlink" version="1.1" width="400" height="400" viewBox="0 0 400 400" xml:space="preserve">
<desc>Created with Fabric.js 3.6.2</desc>
<defs>
</defs>
<g transform="matrix(6.25 0 0 6.25 200 200)" id="telegram_3_"  >
<path style="stroke: none; stroke-width: 1; stroke-dasharray: none; stroke-linecap: butt; stroke-dashoffset: 0; stroke-linejoin: miter; stroke-miterlimit: 4; fill: rgb(38,50,56); fill-rule: nonzero; opacity: 1;"  transform=" translate(-16, -16)" d="M 15.737 31 C 7.474 31 1 24.411 1 16 c 0 -3.629 1.237 -7.111 3.485 -9.804 c 0.178 -0.212 0.492 -0.239 0.704 -0.063 C 5.401 6.31 5.43 6.625 5.253 6.837 C 3.155 9.35 2 12.604 2 16 c 0 7.851 6.034 14 13.737 14 C 23.602 30 30 23.72 30 16 S 23.602 2 15.737 2 c -2.44 0 -4.813 0.62 -6.858 1.792 C 8.642 3.925 8.334 3.846 8.197 3.606 C 8.06 3.366 8.143 3.061 8.383 2.923 C 10.579 1.665 13.122 1 15.737 1 C 24.153 1 31 7.729 31 16 S 24.153 31 15.737 31 z" stroke-linecap="round" />
</g>
<g transform="matrix(6.25 0 0 6.25 144.02 128.45)" id="telegram_3_"  >
<path style="stroke: none; stroke-width: 1; stroke-dasharray: none; stroke-linecap: butt; stroke-dashoffset: 0; stroke-linejoin: miter; stroke-miterlimit: 4; fill: rgb(38,50,56); fill-rule: nonzero; opacity: 1;"  transform=" translate(-7.04, -4.55)" d="M 7.543 4.552 c 0 0.275 -0.225 0.5 -0.5 0.5 l 0 0 c -0.275 0 -0.5 -0.225 -0.5 -0.5 l 0 0 c 0 -0.275 0.225 -0.5 0.5 -0.5 l 0 0 C 7.318 4.052 7.543 4.276 7.543 4.552 L 7.543 4.552 z" stroke-linecap="round" />
</g>
<g transform="matrix(6.25 0 0 6.25 204.18 220.17)" id="telegram_3_"  >
<path style="stroke: none; stroke-width: 1; stroke-dasharray: none; stroke-linecap: butt; stroke-dashoffset: 0; stroke-linejoin: miter; stroke-miterlimit: 4; fill: rgb(38,50,56); fill-rule: nonzero; opacity: 1;"  transform=" translate(-16.67, -19.23)" d="M 19.55 24.018 c -0.111 0 -0.224 -0.037 -0.316 -0.113 l -5.763 -4.721 c -0.113 -0.092 -0.18 -0.229 -0.184 -0.375 c -0.003 -0.146 0.057 -0.285 0.165 -0.383 l 4.277 -3.86 c 0.205 -0.187 0.521 -0.169 0.706 0.036 c 0.186 0.205 0.169 0.521 -0.036 0.706 l -3.846 3.47 l 5.313 4.353 c 0.214 0.175 0.245 0.49 0.07 0.704 C 19.838 23.955 19.694 24.018 19.55 24.018 z" stroke-linecap="round" />
</g>
<g transform="matrix(6.25 0 0 6.25 195.62 205.08)" id="telegram_3_"  >
<path style="stroke: none; stroke-width: 1; stroke-dasharray: none; stroke-linecap: butt; stroke-dashoffset: 0; stroke-linejoin: miter; stroke-miterlimit: 4; fill: rgb(38,50,56); fill-rule: nonzero; opacity: 1;"  transform=" translate(-15.3, -16.81)" d="M 20.157 24.204 L 20.157 24.204 c -0.265 0 -0.55 -0.083 -0.849 -0.248 l -3.286 -2.641 l -1.684 1.553 c -0.234 0.229 -0.52 0.507 -1.089 0.507 c -0.7 0 -0.863 -0.369 -0.97 -0.748 c -0.019 -0.065 -0.04 -0.141 -0.071 -0.228 l -1.206 -3.969 l -3.456 -1.078 c -0.814 -0.25 -0.923 -0.749 -0.932 -0.951 c -0.014 -0.336 0.161 -0.815 1.074 -1.181 l 14.848 -5.729 c 0.425 -0.166 0.924 -0.032 1.212 0.323 c 0.203 0.249 0.281 0.573 0.215 0.889 l -2.565 12.275 C 21.168 24.084 20.453 24.204 20.157 24.204 z M 16 20.155 c 0.111 0 0.222 0.037 0.313 0.111 l 3.55 2.862 c 0.459 0.219 0.5 -0.085 0.557 -0.354 L 22.985 10.5 l -0.063 -0.081 L 8.056 16.151 c -0.175 0.07 -0.29 0.139 -0.36 0.19 c 0.037 0.018 0.086 0.037 0.147 0.056 l 3.711 1.158 c 0.157 0.05 0.281 0.174 0.329 0.332 l 1.274 4.196 c 0.033 0.088 0.061 0.188 0.085 0.272 c 0.002 0.006 0.004 0.013 0.005 0.019 c 0.133 -0.001 0.203 -0.037 0.388 -0.218 l 2.026 -1.87 C 15.757 20.2 15.878 20.155 16 20.155 z" stroke-linecap="round" />
</g>
<g transform="matrix(6.25 0 0 6.25 222.14 184.7)" id="telegram_3_"  >
<path style="stroke: none; stroke-width: 1; stroke-dasharray: none; stroke-linecap: butt; stroke-dashoffset: 0; stroke-linejoin: miter; stroke-miterlimit: 4; fill: rgb(38,50,56); fill-rule: nonzero; opacity: 1;"  transform=" translate(-19.54, -13.55)" d="M 20.043 13.552 c 0 0.275 -0.225 0.5 -0.5 0.5 l 0 0 c -0.275 0 -0.5 -0.225 -0.5 -0.5 l 0 0 c 0 -0.275 0.225 -0.5 0.5 -0.5 l 0 0 C 19.818 13.052 20.043 13.276 20.043 13.552 L 20.043 13.552 z" stroke-linecap="round" />
</g>
</svg>