<?xml version="1.0" encoding="UTF-8" standalone="no" ?>
<!DOCTYPE svg PUBLIC "-//W3C//DTD SVG 1.1//EN" "http://www.w3.org/Graphics/SVG/1.1/DTD/svg11.dtd">
<svg xmlns="http://www.w3.org/2000/svg" xmlns:xlink="http://www.w3.org/1999/xlink" version="1.1" width="400" height="400" viewBox="0 0 400 400" xml:space="preserve">
<desc>Created with Fabric.js 3.6.2</desc>
<defs>
</defs>
<g transform="matrix(0.2 0 0 0.2 200 200)" id="Layer_1"  >
<path style="stroke: none; stroke-width: 1; stroke-dasharray: none; stroke-linecap: butt; stroke-dashoffset: 0; stroke-linejoin: miter; stroke-miterlimit: 4; fill: rgb(81,129,184); fill-rule: nonzero; opacity: 1;"  transform=" translate(-500, -500)" d="M 500 1000 L 500 1000 C 223.9 1000 0 776.1 0 500 v 0 C 0 223.9 223.9 0 500 0 h 0 c 276.1 0 500 223.9 500 500 v 0 C 1000 776.1 776.1 1000 500 1000 z" stroke-linecap="round" />
</g>
<g transform="matrix(0.2 0 0 0.2 200.23 203.13)" id="Logo"  >
<path style="stroke: none; stroke-width: 1; stroke-dasharray: none; stroke-linecap: butt; stroke-dashoffset: 0; stroke-linejoin: miter; stroke-miterlimit: 4; fill: rgb(255,255,255); fill-rule: evenodd; opacity: 1;"  transform=" translate(-501.14, -515.65)" d="M 819 344.5 c 4.6 -15.5 0 -26.8 -22.1 -26.8 H 724 c -18.5 0 -27.1 9.8 -31.7 20.6 c 0 0 -37.1 90.4 -89.6 149.1 c -17 17 -24.7 22.4 -34 22.4 c -4.6 0 -11.3 -5.4 -11.3 -20.9 V 344.5 c 0 -18.5 -5.4 -26.8 -20.8 -26.8 H 422 c -11.6 0 -18.6 8.6 -18.6 16.8 c 0 17.6 26.3 21.6 29 71.1 v 107.4 c 0 23.5 -4.3 27.8 -13.5 27.8 c -24.7 0 -84.8 -90.8 -120.5 -194.7 c -7 -20.2 -14 -28.3 -32.6 -28.3 h -72.9 c -20.8 0 -25 9.8 -25 20.6 c 0 19.3 24.7 115.1 115.1 241.8 c 60.3 86.5 145.1 133.4 222.4 133.4 c 46.3 0 52.1 -10.4 52.1 -28.4 v -65.4 c 0 -20.8 4.4 -25 19.1 -25 c 10.8 0 29.4 5.4 72.6 47.1 c 49.4 49.4 57.6 71.6 85.4 71.6 h 72.9 c 20.8 0 31.2 -10.4 25.2 -31 c -6.6 -20.5 -30.2 -50.2 -61.5 -85.5 c -17 -20.1 -42.5 -41.7 -50.2 -52.5 c -10.8 -13.9 -7.7 -20.1 0 -32.4 C 720.9 512.1 809.7 387 819 344.5 z" stroke-linecap="round" />
</g>
</svg>